<?xml version="1.0" standalone="no"?>
<!DOCTYPE svg PUBLIC "-//W3C//DTD SVG 20010904//EN"
 "http://www.w3.org/TR/2001/REC-SVG-20010904/DTD/svg10.dtd">
<svg version="1.0" xmlns="http://www.w3.org/2000/svg"
 width="200.000000pt" height="200.000000pt" viewBox="0 0 200.000000 200.000000"
 preserveAspectRatio="xMidYMid meet">
<metadata>
Created by potrace 1.11, written by Peter Selinger 2001-2013
</metadata>
<g transform="translate(0.000000,200.000000) scale(0.100000,-0.100000)"
fill="#000000" stroke="none">
<path d="M722 1587 c-5 -7 -21 -48 -37 -92 -15 -44 -32 -85 -36 -91 -5 -6 -6
-14 -2 -17 3 -4 1 -7 -6 -7 -7 0 -9 -5 -6 -10 4 -6 3 -16 -2 -23 -5 -7 -10
-25 -12 -42 -2 -16 -7 -31 -12 -33 -5 -2 -9 -10 -9 -19 0 -10 -9 -6 -29 14
-16 15 -59 55 -96 88 -37 33 -81 74 -99 90 -41 37 -53 40 -65 16 -14 -25 -183
-623 -184 -648 0 -7 -4 -13 -9 -13 -5 0 -4 -9 2 -19 6 -12 32 -26 67 -35 32
-9 72 -21 90 -26 18 -6 40 -13 50 -15 44 -11 338 -93 363 -103 17 -6 32 -10
58 -16 9 -3 18 -5 20 -6 1 -2 5 -3 10 -4 11 -2 105 -27 122 -33 8 -2 17 -5 20
-5 3 0 15 -4 28 -9 12 -5 33 -11 45 -13 20 -5 74 -20 286 -83 47 -14 89 -26
95 -27 6 -1 16 -5 21 -8 6 -4 17 -3 24 1 13 9 19 28 95 301 26 91 53 188 61
215 8 28 17 59 19 70 2 11 9 32 15 48 6 15 8 27 5 27 -4 0 -1 6 5 13 8 10 7
18 -3 32 -12 17 -42 17 -101 -1 -26 -8 -94 -24 -125 -29 -19 -3 -50 -10 -69
-15 -19 -5 -36 -8 -38 -6 -2 1 20 67 48 147 28 79 53 151 56 160 4 14 -53 36
-326 127 -239 80 -333 107 -339 99z"/>
<path d="M1697 773 c-15 -14 -6 -34 21 -44 15 -6 67 -22 115 -36 67 -20 91
-23 100 -14 23 23 -9 44 -108 72 -108 31 -118 32 -128 22z"/>
<path d="M1714 645 c-3 -8 -3 -19 1 -24 5 -9 100 -41 169 -58 12 -3 31 -7 43
-10 28 -6 43 22 22 41 -12 11 -199 66 -223 66 -3 0 -9 -7 -12 -15z"/>
<path d="M1563 584 c-8 -21 2 -28 84 -53 98 -30 128 -32 128 -6 0 15 -14 24
-70 40 -110 34 -135 37 -142 19z"/>
</g>
</svg>
